<?xml version="1.0" encoding="UTF-8" standalone="no"?>
<!DOCTYPE svg PUBLIC "-//W3C//DTD SVG 20010904//EN"
              "http://www.w3.org/TR/2001/REC-SVG-20010904/DTD/svg10.dtd">

<svg xmlns="http://www.w3.org/2000/svg"
     width="0.213334in" height="0.213334in"
     viewBox="0 0 64 64">
  <path id="Eta-Upper"
        fill="none" stroke="black" stroke-width="1"
        d="M 8.00,55.75
           C 8.00,55.75 24.88,55.50 24.88,55.50
             24.88,55.50 15.88,55.38 15.88,55.38
             15.88,55.38 16.25,14.88 16.25,14.88
             16.25,14.88 8.50,14.75 8.50,14.75M 16.13,33.38
           C 16.13,33.38 44.63,33.13 44.63,33.13
             44.63,33.13 44.38,15.13 44.38,15.13
             44.38,15.13 36.75,14.88 36.75,14.88
             36.75,14.88 51.75,14.75 51.75,14.75M 36.75,54.88
           C 36.75,54.88 52.00,54.75 52.00,54.75
             52.00,54.75 44.38,54.88 44.38,54.88
             44.38,54.88 44.50,33.50 44.50,33.50M 23.88,15.00
           C 23.88,15.00 16.63,15.00 16.63,15.00" />
</svg>
