<?xml version="1.0" encoding="UTF-8" standalone="no"?>
<!DOCTYPE svg PUBLIC "-//W3C//DTD SVG 20010904//EN"
              "http://www.w3.org/TR/2001/REC-SVG-20010904/DTD/svg10.dtd">

<svg xmlns="http://www.w3.org/2000/svg"
     width="0.213334in" height="0.213334in"
     viewBox="0 0 64 64">
  <path id="Mu-upper"
        fill="none" stroke="black" stroke-width="1"
        d="M 6.09,55.36
           C 6.09,55.36 20.27,55.36 20.27,55.36
             20.27,55.36 12.73,55.18 12.73,55.18
             12.73,55.18 13.55,15.55 13.55,15.55
             13.55,15.55 7.91,15.45 7.91,15.45
             7.91,15.45 16.27,15.64 16.27,15.64
             16.27,15.64 31.36,53.55 31.36,53.55
             31.36,53.55 48.82,15.91 48.82,15.91
             48.82,15.91 57.82,15.64 57.82,15.64
             57.82,15.64 51.00,15.91 51.00,15.91
             51.00,15.91 50.73,54.91 50.73,54.91
             50.73,54.91 43.36,55.00 43.36,55.00
             43.36,55.00 58.45,55.00 58.45,55.00" />
</svg>
