<?xml version="1.0" encoding="UTF-8" standalone="no"?>
<!DOCTYPE svg PUBLIC "-//W3C//DTD SVG 20010904//EN"
              "http://www.w3.org/TR/2001/REC-SVG-20010904/DTD/svg10.dtd">

<svg xmlns="http://www.w3.org/2000/svg"
     width="0.213334in" height="0.213334in"
     viewBox="0 0 64 64">
  <path id="kappa-upper"
        fill="none" stroke="black" stroke-width="1"
        d="M 49.09,15.00
           C 49.09,15.00 34.45,14.91 34.45,14.91
             34.45,14.91 43.18,15.09 43.18,15.09
             43.18,15.09 19.00,36.55 19.00,36.55
             19.00,36.55 24.18,32.09 24.18,32.09
             24.18,32.09 43.18,54.27 43.18,54.27
             43.18,54.27 49.09,54.36 49.09,54.36M 26.55,14.82
           C 26.55,14.82 10.27,14.91 10.27,14.91
             10.27,14.91 18.73,14.91 18.73,14.91
             18.73,14.91 18.64,54.55 18.55,54.55
             18.45,54.55 26.64,54.64 26.64,54.64
             26.64,54.64 10.36,54.64 10.36,54.64" />
</svg>
