<?xml version="1.0" encoding="UTF-8" standalone="no"?>
<!DOCTYPE svg PUBLIC "-//W3C//DTD SVG 20010904//EN"
              "http://www.w3.org/TR/2001/REC-SVG-20010904/DTD/svg10.dtd">

<svg xmlns="http://www.w3.org/2000/svg"
     width="0.213334in" height="0.213334in"
     viewBox="0 0 64 64">
  <path id="Nu-upper"
        fill="none" stroke="black" stroke-width="1"
        d="M 9.63,55.00
           C 9.63,55.00 24.63,54.88 24.63,54.88
             24.63,54.88 17.00,54.88 17.00,54.88
             17.00,54.88 17.63,18.63 17.63,18.63
             17.63,18.63 15.25,15.25 15.25,15.25
             15.25,15.25 9.88,15.38 9.88,15.38
             9.88,15.38 15.38,15.50 15.38,15.50
             15.38,15.50 46.88,53.25 46.88,53.25
             46.88,53.25 46.88,15.75 46.88,15.75
             46.88,15.75 40.13,15.75 40.13,15.75
             40.13,15.75 53.63,15.63 53.63,15.63" />
</svg>
