<?xml version="1.0" encoding="UTF-8" standalone="no"?>
<!DOCTYPE svg PUBLIC "-//W3C//DTD SVG 20010904//EN"
              "http://www.w3.org/TR/2001/REC-SVG-20010904/DTD/svg10.dtd">

<svg xmlns="http://www.w3.org/2000/svg"
     width="0.213334in" height="0.213334in"
     viewBox="0 0 64 64">
  <path id="xi-upper"
        fill="none" stroke="black" stroke-width="1"
        d="M 22.94,29.19
           C 22.94,29.19 22.88,41.63 22.88,41.63
             22.88,41.63 23.06,35.13 23.06,35.13
             23.06,35.13 42.13,35.25 42.13,35.25
             42.13,35.25 42.06,29.00 42.06,29.00
             42.06,29.00 42.06,41.38 42.06,41.38M 18.63,24.50
           C 18.63,24.50 18.50,17.00 18.50,17.00
             18.50,17.00 46.38,17.50 46.38,17.50
             46.38,17.50 46.19,24.38 46.19,24.38M 17.88,46.75
           C 17.88,46.75 18.13,54.25 18.13,54.25
             18.13,54.25 48.00,54.38 48.00,54.38
             48.00,54.38 47.88,46.63 47.88,46.63" />
</svg>
