<?xml version="1.0" encoding="UTF-8" standalone="no"?>
<!DOCTYPE svg PUBLIC "-//W3C//DTD SVG 20010904//EN"
              "http://www.w3.org/TR/2001/REC-SVG-20010904/DTD/svg10.dtd">

<svg xmlns="http://www.w3.org/2000/svg"
     width="0.213334in" height="0.213334in"
     viewBox="0 0 64 64">
  <path id="chi-upper"
        fill="none" stroke="black" stroke-width="1"
        d="M 37.75,56.13
           C 37.75,56.13 49.75,55.88 49.75,55.88
             49.75,55.88 44.88,56.00 44.88,56.00
             44.88,56.00 19.38,16.00 19.38,16.00
             19.38,16.00 12.88,16.00 12.88,16.00
             12.88,16.00 26.00,16.00 26.00,16.00M 25.13,55.75
           C 25.13,55.75 11.13,55.75 11.13,55.75
             11.13,55.75 17.00,55.50 17.00,55.50
             17.00,55.50 43.88,16.13 43.88,16.13
             43.88,16.13 50.50,16.00 50.50,16.00
             50.50,16.00 36.38,16.50 36.38,16.50" />
</svg>
