<?xml version="1.0" encoding="UTF-8" standalone="no"?>
<!DOCTYPE svg PUBLIC "-//W3C//DTD SVG 20010904//EN"
              "http://www.w3.org/TR/2001/REC-SVG-20010904/DTD/svg10.dtd">

<svg xmlns="http://www.w3.org/2000/svg"
     width="0.213334in" height="0.213334in"
     viewBox="0 0 64 64">
  <path id="Epsilon-upper"
        fill="none" stroke="black" stroke-width="1"
        d="M 24.75,33.00
           C 24.75,33.00 41.13,32.88 41.13,32.88
             41.13,32.88 41.38,28.25 41.38,28.25
             41.38,28.25 41.25,38.63 41.25,38.63M 44.88,21.88
           C 44.75,18.00 43.75,15.88 40.50,15.25
             40.50,15.25 16.63,14.88 16.63,14.88
             16.63,14.88 24.63,14.88 24.63,14.88
             24.63,14.88 24.38,55.00 24.38,55.00
             24.38,55.00 16.00,54.88 16.00,54.88
             16.00,54.88 42.88,54.50 42.88,54.50
             46.25,53.75 46.50,48.13 46.50,46.38" />
</svg>
